<?xml version="1.0" encoding="UTF-8"?><svg id="Layer_1" xmlns="http://www.w3.org/2000/svg" viewBox="0 0 1024 1024"><rect x="0" y="0" width="1024" height="1024" rx="180" ry="180" fill="#1b1cf4"/><path d="M301.89,263.1h448v384h-448v-384ZM253.89,359.1v336h400v48H205.89v-384h48ZM397.89,391.1c17.7,0,32-14.3,32-32s-14.3-32-32-32-32,14.3-32,32,14.3,32,32,32ZM445.89,439.1l-96,144h352l-128-208-81.9,133.1-46.1-69.1Z" fill="#fff"/><path d="M729.75,846.1c85.56,0,154.9-69.34,154.9-154.9s-69.34-154.9-154.9-154.9-154.9,69.34-154.9,154.9,69.34,154.9,154.9,154.9ZM661.98,710.56l57.48-57.48,48.41,48.41-57.48,57.48-58.09,9.68,9.68-58.09ZM816.89,652.47l-28.44,28.44-48.41-48.41,28.44-28.44,48.41,48.41Z" fill="#fff" stroke="#1b1cf4" stroke-miterlimit="10" stroke-width="12"/></svg>
